<svg width="76" height="77" viewBox="0 0 76 77" fill="none" xmlns="http://www.w3.org/2000/svg">
<path d="M72.2017 39.5929L39.2467 72.5083C37.7938 73.9595 38.9383 76.4484 40.9837 76.2863C49.7176 75.6053 58.2648 71.9327 64.9451 65.2604C71.6254 58.5882 75.3024 50.0513 75.9842 41.3279C76.1465 39.2767 73.6546 38.1336 72.2017 39.5929Z" fill="#3A3A8C"/>
<path d="M72.483 22.1094L72.4262 21.9878C70.4781 17.8856 65.0965 16.8884 61.8903 20.0988L19.7388 62.1997C16.5245 65.4102 17.5229 70.7772 21.6301 72.7229L21.7518 72.7797C24.2194 73.939 27.1496 73.3796 29.0815 71.4582L71.1599 29.4303C73.0837 27.5089 73.6437 24.574 72.483 22.1094Z" fill="#3A3A8C"/>
<path d="M36.745 4.182C38.198 2.73081 37.0535 0.241887 35.008 0.404031C26.2741 1.08504 17.7269 4.75762 11.0466 11.4299C4.36636 18.1021 0.689383 26.639 0.00755599 35.3624C-0.154784 37.4136 2.33711 38.5567 3.79005 37.0974L36.745 4.182Z" fill="#3A3A8C"/>
<path d="M9.6811 42.4353L4.84341 47.2672C2.89533 49.213 2.37582 52.1721 3.55279 54.661L3.60149 54.7745C5.52521 58.8525 10.923 59.7848 14.113 56.5986L18.9832 51.7343C21.5563 49.1643 21.5563 45.0053 18.9832 42.4353C16.4101 39.8653 12.2461 39.8653 9.67298 42.4353H9.6811Z" fill="#3A3A8C"/>
<path d="M34.2574 36.4959L56.2787 14.501C59.4687 11.3148 58.5353 5.93162 54.4524 4.0021L54.3388 3.95345C51.8469 2.7779 48.8842 3.28866 46.9361 5.2425L24.9471 27.205C22.3741 29.775 22.3741 33.934 24.9471 36.504C27.5202 39.074 31.6843 39.074 34.2574 36.504V36.4959Z" fill="#00A896"/>
</svg>
